# xmcd
#
# Track frame offsets: 
#        150
#        16695
#        32312
#        51435
#        68262
#        84910
#        96612
#        113872
#        131110
#        144707
#        161825
#        183857
#        201075
#        218245
#        234360
#        249475
#        269162
#        285060
#        301445
#        313792
#        330827
#        347307
#
# Disc length: 4648 seconds
#
# Revision: 3
# Processed by: cddbd v1.5.2PL0 Copyright (c) Steve Scherf et al.
# Submitted via: ExactAudioCopy v1.0b3
#
DISCID=2f122616
DTITLE=Various Artist - 幻の名盤解放歌集12 トリオ編 愛のイエスタデイ
DYEAR=2000
DGENRE=Japan-Pops
TTITLE0=中原美樹 - 愛のイエスタディ
TTITLE1=中原美樹 - 花嫁の手紙
TTITLE2=睦五郎 - 忘れろよ
TTITLE3=渡辺隆二 - 独身花
TTITLE4=井上恵子 - 猫の大行進
TTITLE5=小松方正　ひまわりシスターズ - パンパカパンダ
TTITLE6=貴ノ花健士 - 貴ノ花男の花道
TTITLE7=魅傑将晃 - 俺等を唄う
TTITLE8=ホットピンク - 花嫁はティーン・エイジャー
TTITLE9=ホットピンク - 愛のメモリー
TTITLE10=芝紀美子 - 醜女狩り
TTITLE11=エルナンド - 恋はウムウム
TTITLE12=藤沼千美　おはやし：音羽くずかご会 - 六本木小唄
TTITLE13=彫徳 - 曵かれ者ブルース
TTITLE14=加山ひろし - 雨の他人街
TTITLE15=浅田治 - 夫婦花
TTITLE16=須賀良　グループ一番星 - トラック野郎の三度笠
TTITLE17=須賀良　グループ一番星 - トラック野郎・望郷はぐれ唄
TTITLE18=南条景子 - あいつ
TTITLE19=桑原まゆみ - 北の伝説
TTITLE20=アラジン・スペシャル - がんばれジャイアンツ!!
TTITLE21=ナレーション - 愛のイエスタディ(ナレーション)
EXTD=
EXTT0=
EXTT1=
EXTT2=
EXTT3=
EXTT4=
EXTT5=
EXTT6=
EXTT7=
EXTT8=
EXTT9=
EXTT10=
EXTT11=
EXTT12=
EXTT13=
EXTT14=
EXTT15=
EXTT16=
EXTT17=
EXTT18=
EXTT19=
EXTT20=
EXTT21=
PLAYORDER=
